<svg xmlns="http://www.w3.org/2000/svg" style="display: none;">
  <defs>
    <symbol id="katakana-project" viewBox="0 0 1450 136">
      <g><path d="M 23.5,20.5 C 75.1667,20.5 126.833,20.5 178.5,20.5C 172.649,58.5613 174.983,96.0613 185.5,133C 173.5,133.667 161.5,133.667 149.5,133C 155.735,102.813 151.735,73.9796 137.5,46.5C 121.833,45.1667 106.167,45.1667 90.5,46.5C 76.1423,73.6169 71.4757,102.284 76.5,132.5C 57.1667,133.833 37.8333,133.833 18.5,132.5C 20.1667,126.5 21.8333,120.5 23.5,114.5C 30.5,113.833 37.5,113.167 44.5,112.5C 54.4228,90.7942 56.0895,68.4608 49.5,45.5C 42.4921,45.6663 35.4921,45.4996 28.5,45C 26.3898,36.9494 24.7231,28.7827 23.5,20.5 Z"/></g>
      <g><path d="M 207.5,20.5 C 227.891,35.3786 247.891,50.8786 267.5,67C 275.33,72.4159 283.33,77.5825 291.5,82.5C 302.715,67.6828 308.048,50.8495 307.5,32C 307.463,28.4469 307.13,24.9469 306.5,21.5C 320.5,20.1667 334.5,20.1667 348.5,21.5C 335.4,45.8972 327.567,71.8972 325,99.5C 324.1,110.846 323.266,122.179 322.5,133.5C 314.5,133.5 306.5,133.5 298.5,133.5C 297.518,128.53 295.684,123.863 293,119.5C 278.044,101.601 259.877,87.9345 238.5,78.5C 230.077,96.8966 231.077,114.897 241.5,132.5C 227.5,133.833 213.5,133.833 199.5,132.5C 211.189,95.7868 213.855,58.4535 207.5,20.5 Z"/></g>
      <g><path d="M 362.5,20.5 C 403.172,20.1668 443.839,20.5001 484.5,21.5C 468.713,57.367 463.713,94.7003 469.5,133.5C 433.827,133.833 398.16,133.5 362.5,132.5C 364.423,124.552 366.09,116.552 367.5,108.5C 389.836,108.667 412.169,108.5 434.5,108C 444.962,88.2999 447.629,67.6333 442.5,46C 417.493,45.8332 392.493,45.3332 367.5,44.5C 365.577,36.5517 363.91,28.5517 362.5,20.5 Z"/></g>
      <g><path d="M 527.5,20.5 C 541.516,20.1674 555.516,20.5008 569.5,21.5C 552.249,47.9276 544.582,76.9276 546.5,108.5C 579.173,108.167 611.84,108.5 644.5,109.5C 638.477,121.908 636.143,134.908 637.5,148.5C 628.19,149.498 618.857,149.832 609.5,149.5C 611.768,144.428 613.101,139.094 613.5,133.5C 575.161,133.833 536.828,133.5 498.5,132.5C 518.168,97.8297 527.835,60.4964 527.5,20.5 Z"/></g>
      <g><path d="M 677.5,20.5 C 693.833,20.5 710.167,20.5 726.5,20.5C 733.094,48.0212 745.261,72.6878 763,94.5C 777.914,85.3352 784.248,72.0019 782,54.5C 779.761,42.8759 776.595,31.5425 772.5,20.5C 789.833,20.5 807.167,20.5 824.5,20.5C 816.246,37.6812 809.08,55.3479 803,73.5C 799.116,87.5735 797.282,101.907 797.5,116.5C 773.628,117.883 751.294,124.383 730.5,136C 725.85,139.486 722.85,143.986 721.5,149.5C 700.497,149.667 679.497,149.5 658.5,149C 682.69,139.912 704.69,127.246 724.5,111C 727.462,108.713 729.629,105.88 731,102.5C 731.316,91.4329 728.65,81.0996 723,71.5C 718.065,63.2992 712.399,55.6325 706,48.5C 696.557,38.8887 687.057,29.5553 677.5,20.5 Z"/></g>
      <g><path d="M 847.5,20.5 C 867.891,35.3786 887.891,50.8786 907.5,67C 915.33,72.4159 923.33,77.5825 931.5,82.5C 942.715,67.6828 948.048,50.8495 947.5,32C 947.463,28.4469 947.13,24.9469 946.5,21.5C 960.5,20.1667 974.5,20.1667 988.5,21.5C 975.4,45.8972 967.567,71.8972 965,99.5C 964.1,110.846 963.266,122.179 962.5,133.5C 954.5,133.5 946.5,133.5 938.5,133.5C 937.518,128.53 935.684,123.863 933,119.5C 918.044,101.601 899.877,87.9345 878.5,78.5C 870.077,96.8966 871.077,114.897 881.5,132.5C 867.5,133.833 853.5,133.833 839.5,132.5C 851.189,95.7849 853.855,58.4516 847.5,20.5 Z"/></g>
      <g><path d="M 1002.5,20.5 C 1046.17,20.5 1089.83,20.5 1133.5,20.5C 1132.43,28.8736 1131.09,37.2069 1129.5,45.5C 1101.16,45.3334 1072.83,45.5 1044.5,46C 1039.37,67.6333 1042.04,88.2999 1052.5,108C 1076.17,108.667 1099.83,108.667 1123.5,108C 1137.61,95.244 1149.44,80.744 1159,64.5C 1165.91,50.5598 1168.41,35.8931 1166.5,20.5C 1179.83,20.5 1193.17,20.5 1206.5,20.5C 1199.33,32.1802 1193.16,44.5135 1188,57.5C 1178.08,85.8807 1183.24,111.047 1203.5,133C 1192.51,133.5 1181.51,133.667 1170.5,133.5C 1171.93,129.642 1171.43,125.975 1169,122.5C 1165.94,118.938 1162.44,115.938 1158.5,113.5C 1149.63,117.357 1144.63,124.023 1143.5,133.5C 1101.83,133.5 1060.17,133.5 1018.5,133.5C 1023.62,94.3567 1018.29,56.69 1002.5,20.5 Z"/></g>
    </symbol>
    <symbol id="katakana-project2" viewBox="0 0 1450 136">
      <g><path d="M 23.5,20.5 C 75.1667,20.5 126.833,20.5 178.5,20.5C 172.649,58.5613 174.983,96.0613 185.5,133C 173.5,133.667 161.5,133.667 149.5,133C 155.735,102.813 151.735,73.9796 137.5,46.5C 121.833,45.1667 106.167,45.1667 90.5,46.5C 76.1423,73.6169 71.4757,102.284 76.5,132.5C 57.1667,133.833 37.8333,133.833 18.5,132.5C 20.1667,126.5 21.8333,120.5 23.5,114.5C 30.5,113.833 37.5,113.167 44.5,112.5C 54.4228,90.7942 56.0895,68.4608 49.5,45.5C 42.4921,45.6663 35.4921,45.4996 28.5,45C 26.3898,36.9494 24.7231,28.7827 23.5,20.5 Z"/></g>
      <g><path d="M 207.5,20.5 C 227.891,35.3786 247.891,50.8786 267.5,67C 275.33,72.4159 283.33,77.5825 291.5,82.5C 302.715,67.6828 308.048,50.8495 307.5,32C 307.463,28.4469 307.13,24.9469 306.5,21.5C 320.5,20.1667 334.5,20.1667 348.5,21.5C 335.4,45.8972 327.567,71.8972 325,99.5C 324.1,110.846 323.266,122.179 322.5,133.5C 314.5,133.5 306.5,133.5 298.5,133.5C 297.518,128.53 295.684,123.863 293,119.5C 278.044,101.601 259.877,87.9345 238.5,78.5C 230.077,96.8966 231.077,114.897 241.5,132.5C 227.5,133.833 213.5,133.833 199.5,132.5C 211.189,95.7868 213.855,58.4535 207.5,20.5 Z"/></g>
      <g><path d="M 362.5,20.5 C 403.172,20.1668 443.839,20.5001 484.5,21.5C 468.713,57.367 463.713,94.7003 469.5,133.5C 433.827,133.833 398.16,133.5 362.5,132.5C 364.423,124.552 366.09,116.552 367.5,108.5C 389.836,108.667 412.169,108.5 434.5,108C 444.962,88.2999 447.629,67.6333 442.5,46C 417.493,45.8332 392.493,45.3332 367.5,44.5C 365.577,36.5517 363.91,28.5517 362.5,20.5 Z"/></g>
      <g><path d="M 527.5,20.5 C 541.516,20.1674 555.516,20.5008 569.5,21.5C 552.249,47.9276 544.582,76.9276 546.5,108.5C 579.173,108.167 611.84,108.5 644.5,109.5C 638.477,121.908 636.143,134.908 637.5,148.5C 628.19,149.498 618.857,149.832 609.5,149.5C 611.768,144.428 613.101,139.094 613.5,133.5C 575.161,133.833 536.828,133.5 498.5,132.5C 518.168,97.8297 527.835,60.4964 527.5,20.5 Z"/></g>
      <g><path d="M 677.5,20.5 C 693.833,20.5 710.167,20.5 726.5,20.5C 733.094,48.0212 745.261,72.6878 763,94.5C 777.914,85.3352 784.248,72.0019 782,54.5C 779.761,42.8759 776.595,31.5425 772.5,20.5C 789.833,20.5 807.167,20.5 824.5,20.5C 816.246,37.6812 809.08,55.3479 803,73.5C 799.116,87.5735 797.282,101.907 797.5,116.5C 773.628,117.883 751.294,124.383 730.5,136C 725.85,139.486 722.85,143.986 721.5,149.5C 700.497,149.667 679.497,149.5 658.5,149C 682.69,139.912 704.69,127.246 724.5,111C 727.462,108.713 729.629,105.88 731,102.5C 731.316,91.4329 728.65,81.0996 723,71.5C 718.065,63.2992 712.399,55.6325 706,48.5C 696.557,38.8887 687.057,29.5553 677.5,20.5 Z"/></g>
      <g><path d="M 847.5,20.5 C 867.891,35.3786 887.891,50.8786 907.5,67C 915.33,72.4159 923.33,77.5825 931.5,82.5C 942.715,67.6828 948.048,50.8495 947.5,32C 947.463,28.4469 947.13,24.9469 946.5,21.5C 960.5,20.1667 974.5,20.1667 988.5,21.5C 975.4,45.8972 967.567,71.8972 965,99.5C 964.1,110.846 963.266,122.179 962.5,133.5C 954.5,133.5 946.5,133.5 938.5,133.5C 937.518,128.53 935.684,123.863 933,119.5C 918.044,101.601 899.877,87.9345 878.5,78.5C 870.077,96.8966 871.077,114.897 881.5,132.5C 867.5,133.833 853.5,133.833 839.5,132.5C 851.189,95.7849 853.855,58.4516 847.5,20.5 Z"/></g>
      <g><path d="M 1002.5,20.5 C 1046.17,20.5 1089.83,20.5 1133.5,20.5C 1132.43,28.8736 1131.09,37.2069 1129.5,45.5C 1101.16,45.3334 1072.83,45.5 1044.5,46C 1039.37,67.6333 1042.04,88.2999 1052.5,108C 1076.17,108.667 1099.83,108.667 1123.5,108C 1137.61,95.244 1149.44,80.744 1159,64.5C 1165.91,50.5598 1168.41,35.8931 1166.5,20.5C 1179.83,20.5 1193.17,20.5 1206.5,20.5C 1199.33,32.1802 1193.16,44.5135 1188,57.5C 1178.08,85.8807 1183.24,111.047 1203.5,133C 1192.51,133.5 1181.51,133.667 1170.5,133.5C 1171.93,129.642 1171.43,125.975 1169,122.5C 1165.94,118.938 1162.44,115.938 1158.5,113.5C 1149.63,117.357 1144.63,124.023 1143.5,133.5C 1101.83,133.5 1060.17,133.5 1018.5,133.5C 1023.62,94.3567 1018.29,56.69 1002.5,20.5 Z"/></g>
    </symbol>
    <symbol id="katakana-profile" viewBox="0 0 200 766">
      <g><path d="M 80.5,18.5 C 83.916,17.8663 85.916,19.1996 86.5,22.5C 86.1932,26.8097 84.1932,30.643 80.5,34C 82.0465,35.3866 83.7132,36.5533 85.5,37.5C 85.479,49.3479 85.6457,61.3479 86,73.5C 87.5593,90.4052 91.7259,107.072 98.5,123.5C 103,123.833 107.5,124.167 112,124.5C 119.879,123.916 127.712,123.916 135.5,124.5C 138.566,124.596 141.066,123.596 143,121.5C 147.015,112.792 150.848,103.959 154.5,95C 153.542,93.8525 153.875,92.8525 155.5,92C 155.167,91.6667 154.833,91.3333 154.5,91C 155.279,88.3723 156.279,85.7056 157.5,83C 156.632,81.1354 156.966,79.302 158.5,77.5C 158.069,76.7065 157.735,75.8732 157.5,75C 159.954,63.2031 159.954,51.3697 157.5,39.5C 172.412,39.176 187.245,39.5094 202,40.5C 202.5,40 203,39.5 203.5,39C 188.661,38.8313 173.994,38.3313 159.5,37.5C 174.848,37.1673 190.181,37.5006 205.5,38.5C 192.586,57.8992 184.586,79.2326 181.5,102.5C 181.677,107.866 181.344,113.2 180.5,118.5C 180.667,119.5 180.833,120.5 181,121.5C 181.278,120.584 181.778,119.918 182.5,119.5C 182.5,121.167 182.5,122.833 182.5,124.5C 192.749,124.819 202.916,124.486 213,123.5C 213.233,125.78 214.066,127.78 215.5,129.5C 215.167,130.167 214.833,130.833 214.5,131.5C 216.358,134.788 217.025,138.121 216.5,141.5C 218.184,144.612 218.85,147.946 218.5,151.5C 165.685,152.469 113.185,152.803 61,152.5C 60.7216,151.584 60.2216,150.918 59.5,150.5C 60.4086,144.109 60.7419,137.775 60.5,131.5C 61.8222,128.232 62.4888,124.565 62.5,120.5C 62.7092,115.324 62.0425,110.324 60.5,105.5C 57.6721,75.8949 50.6721,47.0615 39.5,19C 40.6001,17.977 41.9334,17.477 43.5,17.5C 55.8093,18.4405 68.1427,18.7738 80.5,18.5 Z"/></g>
      <g><path d="M 80.5,18.5 C 83.005,17.5033 85.6717,17.5033 88.5,18.5C 88.2128,22.7232 87.5462,26.8899 86.5,31C 87.229,33.271 86.8957,35.4377 85.5,37.5C 83.7132,36.5533 82.0465,35.3866 80.5,34C 84.1932,30.643 86.1932,26.8097 86.5,22.5C 85.916,19.1996 83.916,17.8663 80.5,18.5 Z"/></g>
      <g><path d="M 159.5,37.5 C 173.994,38.3313 188.661,38.8313 203.5,39C 203,39.5 202.5,40 202,40.5C 187.245,39.5094 172.412,39.176 157.5,39.5C 157.062,39.5654 156.728,39.3988 156.5,39C 157.244,37.9614 158.244,37.4614 159.5,37.5 Z"/></g>
      <g><path d="M 181.5,102.5 C 182.361,108.13 182.694,113.796 182.5,119.5C 181.778,119.918 181.278,120.584 181,121.5C 180.833,120.5 180.667,119.5 180.5,118.5C 181.344,113.2 181.677,107.866 181.5,102.5 Z"/></g>
      <g><path d="M 60.5,105.5 C 62.0425,110.324 62.7092,115.324 62.5,120.5C 62.4888,124.565 61.8222,128.232 60.5,131.5C 60.7923,122.774 60.7923,114.108 60.5,105.5 Z"/></g>
      <g><path d="M 59.5,150.5 C 60.2216,150.918 60.7216,151.584 61,152.5C 113.185,152.803 165.685,152.469 218.5,151.5C 219.043,151.56 219.376,151.893 219.5,152.5C 165.44,153.191 111.94,153.857 59,154.5C 58.4209,153.072 58.5876,151.738 59.5,150.5 Z"/></g>
      <g><path d="M 178.5,257.5 C 178.592,252.809 178.592,247.809 178.5,242.5C 176.741,228.815 172.741,215.148 166.5,201.5C 172.258,200.212 178.091,199.545 184,199.5C 195.761,200.281 207.428,200.281 219,199.5C 222.129,200.13 225.296,200.796 228.5,201.5C 212.717,231.424 202.051,261.59 196.5,292C 196.639,299.343 196.639,306.843 196.5,314.5C 174.933,317.085 153.599,321.918 132.5,329C 125.708,331.895 119.375,335.562 113.5,340C 109.894,343.766 106.894,347.933 104.5,352.5C 82.6666,353.161 60.8332,353.828 39,354.5C 38.5,354 38,353.5 37.5,353C 39.5844,352.303 41.2511,351.136 42.5,349.5C 61.3091,341.728 79.6424,331.561 97.5,319C 104.399,314.037 110.732,308.37 116.5,302C 117.553,285.746 113.386,270.246 104,255.5C 89.4384,235.436 72.6051,217.436 53.5,201.5C 61.596,200.065 69.7626,199.399 78,199.5C 88.8842,200.181 99.7176,200.514 110.5,200.5C 116.205,222.111 124.372,242.777 135,262.5C 141.01,271.853 147.51,280.853 154.5,289.5C 167.706,282.351 175.706,271.684 178.5,257.5 Z"/></g>
      <g><path d="M 178.5,242.5 C 178.592,247.809 178.592,252.809 178.5,257.5C 177.167,252.5 177.167,247.5 178.5,242.5 Z"/></g>
      <g><path d="M 42.5,349.5 C 41.2511,351.136 39.5844,352.303 37.5,353C 38,353.5 38.5,354 39,354.5C 60.8332,353.828 82.6666,353.161 104.5,352.5C 104.586,353.496 104.252,354.329 103.5,355C 79.1667,355.667 54.8333,355.667 30.5,355C 34.1944,352.491 38.1944,350.658 42.5,349.5 Z"/></g>
      <g><path d="M 142.5,515.5 C 141.185,516.476 139.852,517.476 138.5,518.5C 129.008,518.601 119.341,518.434 109.5,518C 110.451,517.282 110.617,516.449 110,515.5C 108.035,518.792 105.869,519.125 103.5,516.5C 103.986,514.193 103.986,512.027 103.5,510C 105.125,509.147 105.458,508.147 104.5,507C 106.014,505.561 106.347,504.061 105.5,502.5C 107.27,501.18 107.603,499.68 106.5,498C 108.146,496.445 108.479,494.779 107.5,493C 108.289,489.729 109.289,486.395 110.5,483C 110.043,482.586 109.709,482.086 109.5,481.5C 111.672,475.117 112.339,468.617 111.5,462C 112.567,458.234 113.233,454.401 113.5,450.5C 112.2,443.668 112.2,436.835 113.5,430C 113.548,426.491 112.881,423.157 111.5,420C 112.108,418.769 112.441,417.436 112.5,416C 111.599,405.71 109.932,395.377 107.5,385C 113.172,384.555 118.838,384.055 124.5,383.5C 135.185,384.115 145.851,384.448 156.5,384.5C 154.884,391.172 152.884,397.339 150.5,403C 150.935,405.398 150.269,407.731 148.5,410C 148.5,411.667 148.5,413.333 148.5,415C 147.12,416.324 146.786,417.657 147.5,419C 144.533,427.716 142.533,436.383 141.5,445C 141.735,445.873 142.069,446.707 142.5,447.5C 140.58,457.205 139.58,467.039 139.5,477C 140.378,489.729 141.378,502.562 142.5,515.5 Z"/></g>
      <g><path d="M 142.5,515.5 C 143.234,516.708 143.567,518.041 143.5,519.5C 129.484,519.833 115.484,519.499 101.5,518.5C 101.855,517.478 102.522,516.811 103.5,516.5C 105.869,519.125 108.035,518.792 110,515.5C 110.617,516.449 110.451,517.282 109.5,518C 119.341,518.434 129.008,518.601 138.5,518.5C 139.852,517.476 141.185,516.476 142.5,515.5 Z"/></g>
      <g><path d="M 196.5,667.5 C 195.732,666.737 195.232,665.737 195,664.5C 194.501,669.823 194.334,675.156 194.5,680.5C 189.949,682.072 185.449,683.072 181,683.5C 178.958,682.715 176.958,683.048 175,684.5C 171.543,683.858 168.21,684.524 165,686.5C 164.586,686.043 164.086,685.709 163.5,685.5C 153.481,688.439 143.148,691.606 132.5,695C 125.759,697.918 119.425,701.585 113.5,706C 110.639,708.894 108.139,712.061 106,715.5C 104.872,717.345 104.372,719.345 104.5,721.5C 82.8333,721.5 61.1667,721.5 39.5,721.5C 60.6627,720.668 81.9961,720.168 103.5,720C 81.466,719.458 59.7993,719.124 38.5,719C 39.3805,718.292 40.0472,717.458 40.5,716.5C 61.9724,707.095 82.3058,695.595 101.5,682C 106.285,678.182 110.785,674.015 115,669.5C 118.064,663.378 118.231,657.211 115.5,651C 115.957,650.586 116.291,650.086 116.5,649.5C 114.503,645.343 113.003,641.01 112,636.5C 105.293,623.116 96.9595,610.782 87,599.5C 76.2878,588.286 65.1211,577.62 53.5,567.5C 72.4883,566.5 91.4883,566.167 110.5,566.5C 118.542,599.582 133.208,629.249 154.5,655.5C 167.198,648.628 175.198,638.128 178.5,624C 178.166,618.168 178.166,612.335 178.5,606.5C 176.119,593.3 172.119,580.3 166.5,567.5C 187.167,566.167 207.833,566.167 228.5,567.5C 214.107,594.084 203.774,621.418 197.5,649.5C 197.833,650.167 198.167,650.833 198.5,651.5C 197.531,653.573 196.865,655.739 196.5,658C 197.132,661.085 197.132,664.252 196.5,667.5 Z"/></g>
      <g><path d="M 196.5,667.5 C 197.097,672.294 196.43,676.627 194.5,680.5C 194.334,675.156 194.501,669.823 195,664.5C 195.232,665.737 195.732,666.737 196.5,667.5 Z"/></g>
      <g><path d="M 40.5,716.5 C 40.0472,717.458 39.3805,718.292 38.5,719C 59.7993,719.124 81.466,719.458 103.5,720C 81.9961,720.168 60.6627,720.668 39.5,721.5C 28.1815,721.346 28.5148,719.679 40.5,716.5 Z"/></g>
      <g><path d="M 148.5,778.5 C 141.416,777.874 134.75,778.541 128.5,780.5C 131.638,797.621 139.138,812.955 151,826.5C 160.317,836.72 170.484,845.886 181.5,854C 191.828,854.5 202.161,854.666 212.5,854.5C 214.331,861.928 215.664,869.261 216.5,876.5C 216.046,878.259 216.046,880.259 216.5,882.5C 195.164,882.667 173.831,882.5 152.5,882C 151.12,880.676 150.786,879.343 151.5,878C 150.756,876.961 149.756,876.461 148.5,876.5C 144.262,869.027 139.762,861.694 135,854.5C 129.101,848.924 122.434,844.591 115,841.5C 99.0007,850.855 90.5007,864.522 89.5,882.5C 74.324,882.829 59.324,882.496 44.5,881.5C 80.8093,857.07 93.3093,823.737 82,781.5C 74.9102,770.335 67.0769,759.668 58.5,749.5C 69.0056,748.776 79.5056,748.109 90,747.5C 125.394,748.629 160.727,748.629 196,747.5C 203.523,747.653 211.023,748.153 218.5,749C 216.352,758.798 214.352,768.631 212.5,778.5C 191.167,778.5 169.833,778.5 148.5,778.5 Z"/></g>
      <g><path d="M 148.5,778.5 C 141.933,779.201 135.267,779.868 128.5,780.5C 134.75,778.541 141.416,777.874 148.5,778.5 Z"/></g>
      <g><path d="M 148.5,876.5 C 149.756,876.461 150.756,876.961 151.5,878C 150.786,879.343 151.12,880.676 152.5,882C 173.831,882.5 195.164,882.667 216.5,882.5C 216.046,880.259 216.046,878.259 216.5,876.5C 217.103,878.679 217.77,880.846 218.5,883C 195.836,883.5 173.169,883.667 150.5,883.5C 150.233,881.035 149.566,878.701 148.5,876.5 Z"/></g>
      <g><path d="M 44.5,881.5 C 59.324,882.496 74.324,882.829 89.5,882.5C 73.3385,883.662 57.0052,883.828 40.5,883C 41.745,882.209 43.0783,881.709 44.5,881.5 Z"/></g>
    </symbol>
  </defs>
</svg>
